<svg width="179" height="170" viewBox="0 0 179 170" fill="none" xmlns="http://www.w3.org/2000/svg">
<path d="M43.3615 5.29142C44.7866 5.92507 45.8343 7.18738 46.1947 8.70474L63.0751 79.7792C63.8212 82.9204 61.439 85.9346 58.2105 85.9346H51.6852C48.4473 85.9346 46.0634 88.965 46.8257 92.1118L64.1399 163.581C65.1119 167.594 61.0777 170.989 57.2904 169.346L46.3995 164.621C44.9632 163.997 43.9017 162.738 43.5314 161.216L26.7101 92.1172C25.9438 88.9691 28.3282 85.9346 31.5682 85.9346H38.0933C41.3196 85.9346 43.7014 82.9243 42.9593 79.7845L25.5578 6.1607C24.6064 2.13526 28.6757 -1.23869 32.4552 0.4419L43.3615 5.29142ZM131.894 5.29142C133.319 5.92507 134.367 7.18738 134.727 8.70474L151.607 79.7792C152.354 82.9204 149.971 85.9346 146.743 85.9346H140.217C136.98 85.9346 134.596 88.965 135.358 92.1118L152.672 163.581C153.644 167.594 149.61 170.989 145.823 169.346L134.932 164.621C133.496 163.997 132.434 162.738 132.064 161.216L115.242 92.1172C114.476 88.9691 116.86 85.9346 120.101 85.9346H126.626C129.852 85.9346 132.234 82.9243 131.492 79.7845L114.09 6.1607C113.139 2.13526 117.208 -1.23869 120.988 0.441898L131.894 5.29142ZM35.6014 154.818C36.5744 158.835 32.532 162.231 28.7439 160.579L17.6883 155.76C16.2564 155.135 15.1985 153.878 14.8286 152.36L0.144593 92.1187C-0.622863 88.9701 1.76166 85.9346 5.00237 85.9346H14.9797C17.2876 85.9346 19.2957 87.5142 19.8391 89.7573L35.6014 154.818ZM124.134 154.818C125.107 158.835 121.064 162.231 117.276 160.579L106.221 155.76C104.789 155.135 103.731 153.878 103.361 152.36L88.0997 89.7505C87.5537 87.5107 85.5472 85.9346 83.2419 85.9346H74.7626C72.4546 85.9346 70.4465 84.3548 69.9031 82.1117L54.1431 17.052C53.1702 13.0355 57.2131 9.63975 61.0012 11.2917L72.0544 16.1118C73.4859 16.7361 74.5436 17.9935 74.9135 19.5108L90.1747 82.1187C90.7207 84.3584 92.7272 85.9346 95.0325 85.9346H103.512C105.82 85.9346 107.828 87.5142 108.371 89.7573L124.134 154.818ZM160.587 16.1118C162.018 16.7361 163.076 17.9935 163.446 19.5108L178.13 79.7504C178.897 82.899 176.513 85.9346 173.272 85.9346H163.295C160.987 85.9346 158.979 84.3548 158.435 82.1117L142.675 17.052C141.702 13.0355 145.745 9.63975 149.534 11.2917L160.587 16.1118Z" fill="white"/>
</svg>
