<svg width="92" height="55" viewBox="0 0 92 55" fill="none" xmlns="http://www.w3.org/2000/svg">
<path d="M60.7912 31.713C60.788 32.0127 62.4953 31.4571 62.7562 31.3904C63.2572 31.2623 67.189 30.3546 68.1354 30.0391C68.6558 29.8683 70.2282 28.4863 70.614 28.1185C71.2502 27.512 71.8904 26.9165 72.5127 26.2868C73.6744 25.1114 79.6049 19.6373 81.5307 18.226C82.7046 17.3656 83.9059 16.5434 85.107 15.7212C86.6063 14.695 88.0816 13.626 89.6285 12.6755C89.81 12.564 89.9962 12.4505 90.2048 12.407C90.6886 12.3059 91.4958 12.4648 91.3704 13.1051C91.2492 13.7243 89.35 15.4131 88.8414 15.8952C86.2124 18.3872 83.6589 20.9193 80.8333 23.1945C79.9211 23.9291 74.1929 27.9895 72.0218 29.2315C71.5826 29.4827 71.1971 29.8173 70.8028 30.1344C69.8837 30.8735 54.7265 44.4488 54.6432 44.5085C54.5833 44.5514 54.5132 44.5968 54.5319 44.6822C54.5552 44.7887 54.6517 44.7985 54.7394 44.8073C55.323 44.8663 60.7344 43.2466 61.7403 43.0794C62.4106 42.968 63.7173 42.5424 63.8899 43.5774C63.9606 43.9963 64.0104 45.3462 64.2804 45.3995C64.405 45.4242 64.5321 45.3828 64.652 45.341C65.94 44.8925 67.1912 44.3381 68.3886 43.6852C69.1411 43.275 69.8547 42.7887 70.6371 42.4388C74.7623 40.5943 77.1442 40.817 77.4225 40.8087C77.6136 40.803 77.803 40.8318 77.9812 40.9146C78.0886 40.9645 78.1324 41.0433 78.1327 41.1584C78.1329 41.2747 78.0898 41.3559 77.9767 41.3962C77.3151 41.6315 76.6315 41.8192 75.9566 42.0119C74.9289 42.3051 73.9471 42.5995 72.9731 43.057C71.7515 43.6307 70.549 44.2577 69.3403 44.8531C69.0893 44.9767 67.2338 46.0697 66.8088 46.2654C66.3191 46.4908 64.2924 47.4091 63.2081 46.675C62.9508 46.5008 62.7828 46.2174 62.6982 45.9184C62.5773 45.4909 62.5255 44.9403 62.57 44.4978C62.581 44.3892 62.5225 44.3383 62.4028 44.3563C61.6479 44.4699 55.1292 46.3245 53.0243 46.1634C52.8189 46.1477 45.5246 52.6057 44.8557 53.1617C44.2689 53.6495 43.4958 54.4781 42.7192 54.6091C42.4394 54.6563 42.14 54.5232 42.0329 54.3139C41.7495 53.76 61.9603 36.0437 65.9495 32.4969C66.1165 32.3485 66.4297 32.0885 66.5218 31.8852C66.6638 31.5717 66.2974 31.5776 66.0606 31.6506C64.9204 32.0017 63.7738 32.3323 62.6216 32.6422C62.0819 32.7874 61.4953 33.0172 60.9392 33.0719C60.7417 33.0914 59.6725 33.3952 59.5053 32.2426C59.431 31.7297 60.0795 29.9652 60.2169 29.7734C60.2277 29.7583 60.2175 29.7128 60.2017 29.6982C60.1844 29.6823 60.1451 29.6752 60.1224 29.6834C60.0537 29.7082 59.9882 29.7417 59.922 29.7728C59.1126 30.1532 58.4222 30.7295 57.6496 31.1763C55.3804 32.4889 52.9832 33.6154 50.5396 34.5878C49.7346 34.9081 48.916 35.1945 48.0869 35.4459C47.5825 35.5988 47.0698 35.7395 46.5439 35.7731C45.9668 35.81 45.3002 35.7188 44.8416 35.3366C44.4429 35.0044 44.1168 34.4195 44.21 33.8873C44.2308 33.7687 44.1177 33.7007 44.006 33.7571C43.9152 33.803 43.8228 33.8556 43.7496 33.9244C42.4135 35.18 35.907 38.3166 35.3976 38.5195C34.9276 38.7067 34.395 38.9144 33.8865 38.9505C33.532 38.9757 33.1539 38.8905 32.8977 38.6441C32.3775 38.1434 32.6829 37.1794 32.949 36.6157C33.2598 35.9572 36.5965 32.0848 36.9944 31.6629C37.3194 31.3183 37.7256 30.9015 37.9229 30.4777C37.9793 30.3565 37.9568 30.2561 37.8601 30.1565C37.7384 30.031 37.6565 30.0229 37.4196 30.0099C37.2046 29.9981 36.1921 30.3096 36.0484 30.3522C35.0378 30.6519 33.553 31.416 32.634 31.9324C31.5486 32.5423 30.4744 33.1634 29.4363 33.8515C28.4751 34.4887 25.8554 36.1511 24.4488 37.0132C23.8885 37.3566 23.3184 37.6842 22.7926 38.0779C21.7222 38.8792 20.7596 39.8118 19.8051 40.7447C18.7187 41.8067 14.5852 45.8945 13.8229 47.0195C13.7563 47.1179 13.691 47.2197 13.599 47.2949C13.1746 47.642 12.485 47.4246 12.3929 46.889C12.1732 45.612 20.5565 38.1254 21.3774 37.4702C22.044 36.9381 25.1346 33.9703 26.0564 33.0767C26.7453 32.4088 29.5744 29.6508 30.2998 28.9396C30.9577 28.2945 32.8964 26.5691 32.9666 26.3182C33.0116 26.1577 32.9221 25.9708 32.769 25.9051C32.6327 25.8465 32.4764 25.8802 32.3319 25.9142C28.8938 26.7222 21.2164 27.8023 20.8631 27.8616C19.2362 28.1347 17.6328 28.548 16.0764 29.0945C12.9784 30.1823 9.99667 31.7662 7.30778 33.6478C6.30311 34.3509 5.33342 35.1039 4.404 35.9039C3.4528 36.7225 2.542 37.5913 1.72325 38.5424C1.26293 39.0772 0.817067 39.6712 0.711245 40.3688C0.689823 40.5101 0.681735 40.6573 0.617112 40.7847C0.55249 40.9121 0.409379 41.0148 0.271468 40.9775C0.115779 40.9353 0.0525788 40.7508 0.0287565 40.5913C-0.00933235 40.336 -0.00959862 40.0751 0.0280458 39.8197C0.129157 39.1336 0.495645 38.5167 0.896179 37.9505C2.49138 35.6957 4.73538 33.9124 7.04245 32.4237C9.29551 30.9699 11.3721 29.7295 13.7512 28.7499C18.842 26.6537 24.4111 26.379 29.7742 25.3577C31.2171 25.0829 34.6337 24.5273 34.7892 24.3072C34.8883 24.167 35.049 24.0716 35.175 23.9488C38.8352 20.382 42.5591 16.8041 46.0268 13.0519C46.1363 12.9334 49.498 9.50319 51.1399 7.99955C53.0475 6.25266 55.0134 4.50448 57.1592 3.0707C58.6972 2.0431 60.3135 1.14937 62.038 0.473634C64.7268 -0.579877 68.0621 0.114924 69.6901 2.65017C70.7091 4.23688 70.2508 6.67444 69.3981 8.24008C69.0604 8.86035 67.0423 12.1739 64.0514 14.8088C63.3383 15.4371 61.053 17.1271 58.4789 18.2691C57.1498 18.8588 55.8266 19.4619 54.477 20.0028C51.4217 21.2271 48.3542 22.4321 45.2102 23.4123C43.6037 23.9131 41.978 24.3552 40.3318 24.7056C38.7545 25.0413 37.1504 25.1916 35.5732 25.5051C35.4103 25.5375 28.1595 32.631 27.9211 32.8252C27.8561 32.8782 27.8889 32.9656 27.9723 32.9947C28.1466 33.0556 29.6298 32.2279 30.2011 31.8769C30.8363 31.4866 31.4792 31.1083 32.1336 30.7509C33.6722 29.9104 35.3486 29.0591 37.0733 28.707C37.9241 28.5333 38.5962 28.3184 39.3905 28.4883C39.6945 28.5532 39.8185 28.7656 39.8932 29.0351C40.1021 29.7887 39.6529 30.3934 39.5596 30.5459C39.4193 30.7754 35.1628 35.5247 35.0305 35.7366C34.7948 36.114 33.9855 37.0747 33.9212 37.2608C33.6565 38.0279 35.3736 37.3464 35.5709 37.2811C35.8814 37.1783 39.8318 35.1095 40.6348 34.6431C41.4626 34.1623 45.9124 31.2246 46.0783 31.0971C46.4224 30.8326 47.9182 30.9358 47.3383 31.4268C45.1576 33.273 45.4537 33.532 45.5797 33.8637C45.746 34.3018 46.168 34.4461 46.5976 34.4649C47.198 34.4912 49.6627 33.6348 50.2774 33.4104C51.5068 32.9615 52.7101 32.4411 53.879 31.8524C54.9419 31.3171 58.701 29.2418 59.3926 28.8171C60.0647 28.4044 60.7435 28.0027 61.4287 27.6121C61.7969 27.4023 62.8675 26.524 63.2579 26.9876C63.4096 27.1698 63.5406 27.3705 63.4583 27.6295C63.3124 28.089 62.0543 29.545 61.9761 29.6729C61.8979 29.8008 60.796 31.2598 60.7912 31.713ZM63.0326 1.27301C62.6102 1.37959 60.404 2.40435 58.7039 3.4263C57.7888 3.97643 54.6822 6.30279 54.4069 6.58639C52.6223 8.42475 50.6427 10.0577 48.8025 11.8381C47.4378 13.1585 46.1923 14.5936 44.8362 15.9247C43.8807 16.8627 42.8891 17.7709 41.9647 18.7399C41.3086 19.4277 38.065 22.5626 37.1734 23.5434C37.0312 23.7026 36.8346 23.8393 36.8943 24.1012C37.0918 24.2129 37.2972 24.1612 37.4935 24.1115C38.744 23.7949 40.0244 23.6757 41.2861 23.4215C43.7465 22.9259 46.1391 22.0321 48.502 21.1996C50.4147 20.5257 52.3713 19.815 54.277 19.0634C56.1501 18.3247 57.9346 17.5127 59.6809 16.5121C61.5713 15.4289 63.4599 14.0783 64.9571 12.5079C66.2817 11.1183 67.3986 9.73741 68.3393 8.06372C68.6344 7.53866 68.9067 6.99839 69.0994 6.42644C69.654 4.77968 69.33 2.75164 67.6618 1.9159C66.257 1.21212 65.0228 0.770969 63.0326 1.27301ZM75.3342 25.6573C75.3206 25.7023 75.3238 25.7474 75.3712 25.7682C75.395 25.7786 75.4294 25.7755 75.4556 25.7676C78.9297 23.6856 88.0719 15.154 88.0218 15.0832C87.9853 15.0314 75.5252 24.1866 75.3342 25.6573Z" fill="white"/>
</svg>
