<svg width="20" height="20" viewBox="0 0 20 20" fill="none" xmlns="http://www.w3.org/2000/svg">
<g clip-path="url(#clip0_8_23)">
<path d="M8.26418 1.02087C8.18719 0.90396 8.05664 0.83353 7.91668 0.833374H0.41668C0.186563 0.833374 8.21124e-09 1.01994 8.21124e-09 1.25005V18.7501C-3.90543e-05 18.9481 0.139297 19.1188 0.33332 19.1584C0.360742 19.1639 0.388672 19.1667 0.416641 19.1667C0.582852 19.1673 0.733477 19.069 0.799961 18.9167L8.29996 1.41669C8.35582 1.2872 8.34234 1.13826 8.26418 1.02087Z" fill="#F44336"/>
<path d="M10.3858 7.34331C10.3221 7.18624 10.1695 7.08343 10 7.08331C9.83231 7.08327 9.68091 7.18374 9.61583 7.33831L6.28251 15.255C6.19321 15.4671 6.29278 15.7114 6.50485 15.8007C6.55606 15.8223 6.6111 15.8334 6.66665 15.8334H9.71083L10.86 18.8967C10.9211 19.0591 11.0765 19.1667 11.25 19.1667H14.5833C14.8134 19.1665 14.9999 18.9799 14.9997 18.7498C14.9997 18.6961 14.9893 18.643 14.9692 18.5934L10.3858 7.34331Z" fill="#F44336"/>
<path d="M19.5834 0.833316H12.0834C11.8533 0.832495 11.6661 1.01839 11.6653 1.24851C11.6651 1.30636 11.6769 1.36363 11.7001 1.41664L19.2001 18.9166C19.2665 19.069 19.4172 19.1672 19.5834 19.1666C19.6113 19.1666 19.6393 19.1638 19.6667 19.1583C19.8607 19.1187 20.0001 18.948 20 18.75V1.25C20.0001 1.01988 19.8135 0.833316 19.5834 0.833316Z" fill="#F44336"/>
</g>
<defs>
<clipPath id="clip0_8_23">
<rect width="20" height="20" fill="white"/>
</clipPath>
</defs>
</svg>
