<svg width="20" height="20" viewBox="0 0 20 20" fill="none" xmlns="http://www.w3.org/2000/svg">
<g clip-path="url(#clip0_8_7)">
<path d="M10.0232 10C10.0232 8.15907 11.5156 6.66669 13.3565 6.66669C15.1975 6.66669 16.6898 8.15911 16.6898 10C16.6898 11.841 15.1974 13.3333 13.3565 13.3333C11.5155 13.3333 10.0232 11.8409 10.0232 10Z" fill="#00BCFF"/>
<path d="M3.35669 16.6667C3.35669 14.8257 4.84907 13.3334 6.69001 13.3334L8.46638 12.3955L10.0233 13.3334V16.6667C10.0233 18.5077 8.53095 20 6.69001 20C4.84907 20 3.35669 18.5076 3.35669 16.6667Z" fill="#00CF7F"/>
<path d="M10.0233 0L8.20947 3.15117L10.0233 6.66664H13.3099C15.1508 6.66664 16.6432 5.17426 16.6432 3.33332C16.6432 1.49238 15.1508 0 13.3099 0H10.0233Z" fill="#FF7361"/>
<path d="M3.30981 3.33332C3.30981 5.17426 4.8022 6.66664 6.64313 6.66664L8.41138 7.34961L10.0232 6.66664V0H6.6431C4.8022 0 3.30981 1.49238 3.30981 3.33332Z" fill="#FF4D12"/>
<path d="M3.35669 9.99999C3.35669 11.841 4.84907 13.3333 6.69001 13.3333H10.0233V6.66663H6.69001C4.84907 6.66663 3.35669 8.15905 3.35669 9.99999Z" fill="#B659FF"/>
</g>
<defs>
<clipPath id="clip0_8_7">
<rect width="20" height="20" fill="white"/>
</clipPath>
</defs>
</svg>
