<svg width="20" height="20" viewBox="0 0 20 20" fill="none" xmlns="http://www.w3.org/2000/svg">
<g clip-path="url(#clip0_8_68)">
<path d="M1.25923 0.66208L2.55726 17.2682C2.57675 17.5175 2.74554 17.7302 2.98399 17.8058L9.8143 19.9713C9.93509 20.0096 10.0648 20.0096 10.1856 19.9713L17.0159 17.8058C17.2543 17.7302 17.4231 17.5175 17.4426 17.2682L18.7406 0.66208C18.7685 0.305058 18.4864 0 18.1283 0H1.8716C1.51352 0 1.23135 0.305058 1.25923 0.66208ZM15.4119 5.81439H6.95232L7.20763 8.16866H15.2279L14.7032 14.8804L9.99995 16.3715L5.29666 14.8804L5.02256 11.3739H7.49122V13.0939L10.0659 13.7849L12.6252 13.0939L12.8238 10.3527H4.94272L4.41949 3.65862H15.5804L15.4119 5.81439Z" fill="#FC490B"/>
</g>
<defs>
<clipPath id="clip0_8_68">
<rect width="20" height="20" fill="white"/>
</clipPath>
</defs>
</svg>
