<svg width="20" height="20" viewBox="0 0 20 20" fill="none" xmlns="http://www.w3.org/2000/svg">
<path d="M3.09962 15C1.43585 15 0 14.0421 0 12.0991H1.64906C1.64906 13.0152 2.33208 13.487 3.09962 13.487C3.85321 13.487 4.52151 13.057 4.52151 11.9884V5H6.18566V12.1268C6.18528 14.1673 4.72075 15 3.09962 15ZM9.60113 14.9824C8.23585 14.9824 7.16981 14.2467 7.16981 12.6783V6.04451H8.73396V7.97354H10.4547V9.33374H8.73396V12.4284C8.73396 13.2889 9.11774 13.5941 9.9283 13.5941C10.2268 13.5941 10.5396 13.5524 10.7672 13.4694V14.8296C10.454 14.9267 10.0845 14.9824 9.60113 14.9824ZM13.8125 14.9824C12.4475 14.9824 11.3815 14.2467 11.3815 12.6783V6.04451H12.9457V7.97354H14.9657V9.33374H12.9457V12.4284C12.9457 13.2889 13.3294 13.5941 14.14 13.5941C14.4385 13.5941 14.7513 13.5524 14.9789 13.4694V14.8296C14.6657 14.9267 14.2959 14.9824 13.8128 14.9824H13.8125ZM15.9475 8.00014H17.5117V9.23522C17.7819 8.4442 18.5781 7.93075 19.3887 7.93075C19.5875 7.93075 19.7868 7.94441 20 7.98612V9.55451C19.7298 9.47181 19.5023 9.42974 19.2177 9.42974C18.3219 9.42974 17.5117 10.1654 17.5117 11.5533V14.9396H15.9475V8.00014Z" fill="#7A40ED"/>
</svg>
