<?xml version="1.0" encoding="UTF-8"?>
<svg id="Layer_1" xmlns="http://www.w3.org/2000/svg" version="1.1" viewBox="0 0 239.14 218">
  <!-- Generator: Adobe Illustrator 29.7.1, SVG Export Plug-In . SVG Version: 2.1.1 Build 8)  -->
  <defs>
    <style>
      .st0 {
        fill: #191919;
      }
    </style>
  </defs>
  <path class="st0" d="M235.14,109h-54.83c-5.25,0-9.5-4.25-9.5-9.5V4c0-2.21-1.79-4-4-4h-26.16c-2.21,0-4,1.79-4,4v95.5c0,5.25-4.25,9.5-9.5,9.5h-15.16c-5.25,0-9.5-4.25-9.5-9.5V4c0-2.21-1.79-4-4-4h-26.16c-2.21,0-4,1.79-4,4v95.5c0,5.25-4.25,9.5-9.5,9.5H4c-2.21,0-4,1.79-4,4v101c0,2.21,1.79,4,4,4h60.33c2.21,0,4-1.79,4-4v-95.5c0-5.25,4.25-9.5,9.5-9.5h15.16c5.25,0,9.5,4.25,9.5,9.5v95.5c0,2.21,1.79,4,4,4h26.16c2.21,0,4-1.79,4-4v-95.5c0-5.25,4.25-9.5,9.5-9.5h15.16c5.25,0,9.5,4.25,9.5,9.5v95.5c0,2.21,1.79,4,4,4h60.33c2.21,0,4-1.79,4-4v-101c0-2.21-1.79-4-4-4h0Z"/>
</svg>