<svg width="20" height="20" viewBox="0 0 20 20" fill="none" xmlns="http://www.w3.org/2000/svg">
<path fill-rule="evenodd" clip-rule="evenodd" d="M4.17694 0L9.47 5.24715V5.24595V0.0121076H10.5004V5.27063L15.8171 0V5.98253H18V14.6118H15.8238V19.9389L10.5004 14.9066V19.9967H9.47V14.9896L4.18294 20V14.6118H2V5.98253H4.17694V0ZM8.69324 7.0776H3.03035V13.5167H4.18165V11.4856L8.69324 7.0776ZM5.21324 11.9715V17.5565L9.47 13.5225V7.81146L5.21324 11.9715ZM10.53 13.4691V7.80608L14.788 11.9663V14.6118H14.7935V17.4994L10.53 13.4691ZM15.8238 13.5167H16.9696V7.0776H11.3489L15.8238 11.4399V13.5167ZM14.7868 5.98253V2.51888L11.2928 5.98253H14.7868ZM8.70124 5.98253H5.20729V2.51888L8.70124 5.98253Z" fill="#007E8B"/>
</svg>
