<svg width="20" height="20" viewBox="0 0 20 20" fill="none" xmlns="http://www.w3.org/2000/svg">
<g clip-path="url(#clip0_8_104)">
<mask id="mask0_8_104" style="mask-type:luminance" maskUnits="userSpaceOnUse" x="0" y="0" width="20" height="20">
<path d="M20 0H0V20H20V0Z" fill="white"/>
</mask>
<g mask="url(#mask0_8_104)">
<path d="M10 10H20C20 11.3132 19.7413 12.6136 19.2388 13.8269C18.7363 15.0401 17.9997 16.1425 17.0711 17.0711C16.1425 17.9997 15.0401 18.7363 13.8269 19.2388C12.6136 19.7413 11.3132 20 10 20V10Z" fill="#5854FF"/>
<path d="M10 0H0V10C0 12.6521 1.05357 15.1957 2.92893 17.0711C4.80429 18.9464 7.34787 20 10 20V0Z" fill="#FF3666"/>
<path d="M15 10C17.7614 10 20 7.7614 20 5C20 2.23857 17.7614 0 15 0C12.2386 0 10 2.23857 10 5C10 7.7614 12.2386 10 15 10Z" fill="#FFC329"/>
</g>
</g>
<defs>
<clipPath id="clip0_8_104">
<rect width="20" height="20" fill="white"/>
</clipPath>
</defs>
</svg>
