<svg width="20" height="17" viewBox="0 0 20 17" fill="none" xmlns="http://www.w3.org/2000/svg">
<path fill-rule="evenodd" clip-rule="evenodd" d="M7.18127 2.04C6.41729 2.04 5.70538 2.41781 5.32351 3.026L2.50486 7.514C2.12287 8.12218 2.12287 8.87783 2.50486 9.486L5.32337 13.974C5.70538 14.5822 6.41729 14.96 7.18127 14.96H12.8187C13.5827 14.96 14.2946 14.5822 14.6766 13.974L17.4952 9.486C17.8773 8.87783 17.8773 8.12218 17.4952 7.514L14.6764 3.026C14.2946 2.41781 13.5828 2.04 12.8187 2.04H7.18127ZM12.8187 17H7.18127C5.62711 17 4.17872 16.2315 3.40156 14.994L0.582756 10.506C-0.194252 9.26853 -0.194252 7.73135 0.582756 6.494L3.40156 2.006C4.17856 0.768672 5.62697 0 7.18127 0H12.8187C14.373 0 15.8212 0.768672 16.5984 2.006L19.4172 6.494C20.1943 7.73135 20.1943 9.26853 19.4172 10.506L16.5984 14.994C15.8212 16.2315 14.3729 17 12.8187 17Z" fill="#FFAF0F"/>
<path fill-rule="evenodd" clip-rule="evenodd" d="M11.273 13C11.057 13 10.8378 12.9551 10.6372 12.8607C10.0279 12.574 9.81901 11.9389 10.171 11.4422L12.2549 8.49999L10.171 5.55777C9.81901 5.06114 10.0279 4.42601 10.6372 4.13927C11.2465 3.85266 12.0257 4.02253 12.3775 4.51933L14.8294 7.98078C15.0569 8.302 15.0569 8.69799 14.8294 9.01921L12.3775 12.4807C12.1416 12.8138 11.7133 13 11.273 13Z" fill="#414237"/>
</svg>
